<svg width="96" height="16" viewBox="0 0 96 16" fill="none" xmlns="http://www.w3.org/2000/svg">
<rect width="96" height="16" fill="white"/>
<path d="M14 1.16809C14 1.17123 13.9686 1.22933 13.9278 1.29528C13.664 1.7428 13.375 2.43685 13.2447 2.93462C13.1474 3.31462 13.1285 3.45908 13.1301 3.87049C13.1301 4.20024 13.1364 4.31016 13.1882 4.74983C13.2667 5.44074 13.2777 5.57107 13.2887 6.02173C13.3169 7.22926 13.0798 8.48232 12.5522 9.90025C12.0325 11.2978 11.3149 12.3389 10.3963 13.0329C9.85611 13.4396 9.32065 13.6846 8.7004 13.8055C8.55123 13.8353 8.46958 13.84 8.088 13.8416C7.84619 13.8432 7.66561 13.8384 7.68759 13.8337C7.71743 13.8259 7.70643 13.8212 7.63734 13.8117C7.58709 13.8055 7.53842 13.8055 7.529 13.8117C7.51643 13.818 7.51486 13.8165 7.52114 13.8055C7.529 13.7929 7.52114 13.7866 7.50073 13.7866C7.48346 13.7866 7.37982 13.7678 7.27147 13.7458C7.16156 13.7238 7.05007 13.7097 7.02337 13.7144C6.98726 13.7207 6.98255 13.7207 7.00453 13.7097C7.03123 13.6987 7.02494 13.6956 6.96999 13.6861C6.93387 13.6798 6.89461 13.6798 6.88519 13.6861C6.8742 13.6924 6.87106 13.6908 6.87734 13.6798C6.8899 13.6594 6.80511 13.639 6.758 13.6532C6.73288 13.6594 6.72817 13.6579 6.7423 13.6484C6.758 13.6375 6.74858 13.6312 6.70775 13.6233C6.67635 13.617 6.64337 13.617 6.63238 13.6233C6.62139 13.6312 6.61982 13.628 6.62767 13.6139C6.63709 13.5982 6.62924 13.5951 6.58684 13.6029C6.55701 13.6092 6.54288 13.6076 6.5523 13.6013C6.56486 13.5935 6.50048 13.5652 6.38742 13.5291C6.28693 13.4961 6.19271 13.4663 6.18015 13.4616C6.15974 13.4553 6.15974 13.4569 6.18015 13.471C6.19271 13.4804 6.19585 13.4883 6.188 13.4883C6.16759 13.4883 6.12048 13.4569 6.14089 13.4569C6.14874 13.4569 6.1142 13.4333 6.06238 13.4051L5.96817 13.3548L5.94775 13.4176C5.90536 13.5495 5.8661 13.7851 5.85668 13.9594C5.83941 14.2561 5.8975 14.4179 6.09536 14.6361L6.21312 14.7665L6.05924 14.8089C5.95874 14.8356 5.89907 14.845 5.88651 14.8356C5.87552 14.8277 5.85982 14.8246 5.85197 14.8293C5.83469 14.8403 5.76403 14.7555 5.76403 14.7241C5.76403 14.7131 5.74205 14.6597 5.71379 14.6032C5.68709 14.5466 5.65569 14.4665 5.64469 14.4257C5.63527 14.3833 5.62114 14.3566 5.61643 14.366C5.61015 14.3755 5.60544 14.2781 5.60701 14.1509C5.60701 13.9421 5.61172 13.9013 5.65726 13.7317C5.68552 13.628 5.73263 13.4694 5.76246 13.3799C5.79387 13.2889 5.81585 13.2151 5.81428 13.2135C5.81271 13.2119 5.78445 13.1946 5.75304 13.1758C5.72007 13.157 5.68866 13.1444 5.68081 13.1491C5.66668 13.1585 5.42015 12.9638 5.37147 12.9057C5.3542 12.8853 5.36833 12.8932 5.40288 12.9246C5.46569 12.9795 5.59602 13.0847 5.65412 13.1271C5.71379 13.1695 5.65412 13.1146 5.51279 12.9984C5.43428 12.934 5.36205 12.8696 5.34949 12.8555C5.32122 12.8194 5.29139 12.8209 5.31808 12.857C5.32907 12.8712 5.2694 12.8162 5.18618 12.7346C5.048 12.5995 4.99461 12.5414 5.05742 12.5932C5.09825 12.6278 5.08254 12.5854 5.04015 12.5446C4.96635 12.477 4.74808 12.1975 4.63659 12.0279C4.57692 11.9369 4.52039 11.8646 4.51254 11.8678C4.50469 11.8693 4.50155 11.8646 4.50783 11.8568C4.52196 11.8332 4.47015 11.7422 4.44973 11.7547C4.43874 11.761 4.43717 11.7594 4.44345 11.7484C4.44973 11.739 4.42775 11.6793 4.39634 11.6165C4.27386 11.3731 4.13568 10.9806 4.09957 10.7717C4.087 10.7074 4.08543 10.7042 4.07444 10.7403C4.06502 10.7686 4.06345 10.7608 4.06973 10.7168C4.07444 10.6807 4.0713 10.621 4.06188 10.5833C4.05403 10.5441 4.03833 10.4074 4.02734 10.2803C3.99122 9.82331 4.05874 9.33653 4.25502 8.61736C4.40891 8.06149 4.60048 7.5543 4.85329 7.0424C5.24742 6.24 5.66982 5.64487 6.26651 5.04661C6.93387 4.37768 7.5447 3.95371 8.61404 3.41669C9.42429 3.01156 9.95503 2.78702 10.9302 2.44156C11.8205 2.12437 12.1157 2.00346 12.7517 1.69569C13.5242 1.3204 14 1.11941 14 1.16809ZM13.1379 1.98619C11.6336 3.62082 8.99875 6.85554 8.35652 7.85893C7.61536 9.0162 6.90718 10.3603 6.41726 11.5443C6.13932 12.2148 5.84255 13.1051 5.87081 13.1805C5.88494 13.2166 5.95874 13.2606 5.97759 13.2417C5.98544 13.2339 6.02155 13.1287 6.0561 13.0078C6.4518 11.6527 7.16313 10.0981 8.06916 8.61265C8.44602 7.99554 9.01445 7.16802 9.47454 6.56504C9.95346 5.93694 11.5865 3.92702 12.7265 2.5609C13.0751 2.14164 13.3955 1.75379 13.4394 1.69726C13.5148 1.59991 13.5148 1.59677 13.4598 1.64859C13.4269 1.67842 13.2824 1.83073 13.1379 1.98619ZM5.08097 12.6136C5.08097 12.6152 5.13279 12.667 5.19403 12.7267L5.30866 12.8366L5.19874 12.722C5.09825 12.6168 5.08097 12.6011 5.08097 12.6136ZM5.80329 14.7759C5.82213 14.801 5.84098 14.823 5.84412 14.823C5.84883 14.823 5.83783 14.801 5.81899 14.7759C5.80015 14.7492 5.78131 14.7288 5.77817 14.7288C5.77345 14.7288 5.78445 14.7492 5.80329 14.7759Z" fill="black"/>
<path d="M4.00838 10.3086C4.00838 10.3431 4.00524 10.3557 4.0021 10.3353C3.99896 10.3164 3.99896 10.2882 4.0021 10.2725C4.00681 10.2583 4.00995 10.274 4.00838 10.3086Z" fill="black"/>
<path d="M4.02752 10.42C4.02752 10.4373 4.02281 10.442 4.0181 10.4294C4.01339 10.4184 4.01496 10.4043 4.01967 10.3996C4.02438 10.3933 4.02909 10.4027 4.02752 10.42Z" fill="black"/>
<path d="M4.09002 10.8126C4.09002 10.8299 4.08531 10.8346 4.0806 10.822C4.07589 10.811 4.07746 10.7969 4.08217 10.7922C4.08688 10.7859 4.09159 10.7953 4.09002 10.8126Z" fill="black"/>
<path d="M4.28016 11.3873C4.28016 11.392 4.29115 11.4218 4.30372 11.4532C4.31628 11.4846 4.32413 11.5098 4.31942 11.5098C4.30686 11.5098 4.26289 11.3951 4.27231 11.3873C4.27702 11.3826 4.28016 11.3826 4.28016 11.3873Z" fill="black"/>
<path d="M4.3871 11.6275C4.41379 11.6841 4.43421 11.7296 4.4295 11.7296C4.41851 11.7296 4.32429 11.5396 4.33057 11.5318C4.33371 11.5286 4.35884 11.5726 4.3871 11.6275Z" fill="black"/>
<path d="M4.48452 11.8081C4.49394 11.8253 4.49708 11.8395 4.49394 11.8395C4.48923 11.8395 4.47824 11.8253 4.46882 11.8081C4.45939 11.7908 4.45625 11.7767 4.45939 11.7767C4.4641 11.7767 4.4751 11.7908 4.48452 11.8081Z" fill="black"/>
<path d="M4.55353 11.9259C4.56767 11.9479 4.58965 11.984 4.60378 12.0075L4.62891 12.0515L4.5975 12.0138C4.55982 11.9683 4.51114 11.8866 4.52056 11.8866C4.52527 11.8866 4.5394 11.9039 4.55353 11.9259Z" fill="black"/>
<path d="M4.73696 12.196C4.79192 12.2729 4.88143 12.3876 4.93638 12.4519C5.01804 12.5477 5.02118 12.554 4.95523 12.4849C4.8563 12.3813 4.61134 12.0594 4.63019 12.0594C4.6349 12.0594 4.682 12.1206 4.73696 12.196Z" fill="black"/>
<path d="M6.02321 13.4019C6.04519 13.4144 6.05461 13.4238 6.04519 13.4254C6.03734 13.4254 6.01536 13.4144 5.99808 13.4019C5.9604 13.3736 5.97296 13.372 6.02321 13.4019Z" fill="black"/>
<path d="M6.10136 13.4412C6.11549 13.4506 6.11706 13.4569 6.10607 13.4569C6.09665 13.4569 6.08251 13.4491 6.0778 13.4412C6.06524 13.4224 6.07152 13.4224 6.10136 13.4412Z" fill="black"/>
<path d="M6.51292 13.5935C6.50193 13.5982 6.4878 13.5966 6.48309 13.5919C6.47681 13.5872 6.48623 13.5825 6.5035 13.584C6.52077 13.584 6.52548 13.5888 6.51292 13.5935Z" fill="black"/>
<path d="M6.68577 13.6406C6.67478 13.6453 6.66065 13.6437 6.65594 13.639C6.64966 13.6343 6.65908 13.6296 6.67635 13.6312C6.69363 13.6312 6.69834 13.6359 6.68577 13.6406Z" fill="black"/>
<path d="M6.95259 13.7035C6.94317 13.7066 6.92432 13.7066 6.91333 13.7035C6.90391 13.6987 6.91176 13.6956 6.93374 13.6956C6.95573 13.6956 6.96358 13.6987 6.95259 13.7035Z" fill="black"/>
<path d="M7.2512 13.7662C7.24021 13.7709 7.22608 13.7693 7.22137 13.7646C7.21509 13.7599 7.22451 13.7552 7.24178 13.7568C7.25905 13.7568 7.26377 13.7615 7.2512 13.7662Z" fill="black"/>
<path d="M7.33754 13.7819C7.32341 13.7851 7.30142 13.7851 7.29043 13.7819C7.28101 13.7772 7.292 13.7741 7.3187 13.7741C7.34382 13.7741 7.35324 13.7772 7.33754 13.7819Z" fill="black"/>
<path d="M7.59663 13.8291C7.58721 13.8322 7.56837 13.8322 7.55737 13.8291C7.54795 13.8244 7.5558 13.8212 7.57779 13.8212C7.59977 13.8212 7.60762 13.8244 7.59663 13.8291Z" fill="black"/>
<path d="M5.62898 14.4178C5.62898 14.432 5.63526 14.4571 5.63997 14.4728C5.64782 14.4995 5.64782 14.4995 5.63055 14.4728C5.62113 14.4571 5.61642 14.4335 5.61956 14.4178C5.62584 14.3943 5.62741 14.3943 5.62898 14.4178Z" fill="black"/>
<path d="M5.66846 14.5325C5.6826 14.5734 5.67946 14.5828 5.66061 14.5514C5.65119 14.5357 5.64648 14.5184 5.65119 14.5153C5.65433 14.5105 5.66218 14.5184 5.66846 14.5325Z" fill="black"/>
<path d="M5.73101 14.6691L5.75928 14.7209L5.7263 14.6817C5.69804 14.6471 5.68548 14.6189 5.69804 14.6189C5.69961 14.6189 5.71531 14.6424 5.73101 14.6691Z" fill="black"/>
<path d="M25.125 4.3C25.653 4.3 26.1223 4.399 26.533 4.597C26.9437 4.795 27.2883 5.07367 27.567 5.433C27.853 5.785 28.0657 6.19567 28.205 6.665C28.3517 7.127 28.425 7.622 28.425 8.15C28.425 8.86133 28.2967 9.51033 28.04 10.097C27.7833 10.6763 27.4093 11.1383 26.918 11.483C26.434 11.8277 25.8363 12 25.125 12H22.496C22.3053 12 22.144 11.9377 22.012 11.813C21.8873 11.681 21.825 11.5197 21.825 11.329V4.971C21.825 4.78033 21.8873 4.62267 22.012 4.498C22.144 4.366 22.3053 4.3 22.496 4.3H25.125ZM25.015 10.735C25.477 10.735 25.8547 10.6177 26.148 10.383C26.4413 10.141 26.654 9.82567 26.786 9.437C26.9253 9.041 26.995 8.612 26.995 8.15C26.995 7.80533 26.9547 7.479 26.874 7.171C26.8007 6.85567 26.6833 6.58067 26.522 6.346C26.3607 6.104 26.1553 5.91333 25.906 5.774C25.6567 5.63467 25.3597 5.565 25.015 5.565H23.09L23.2 5.466V10.856L23.134 10.735H25.015ZM30.8213 11.329C30.8213 11.5197 30.7589 11.681 30.6343 11.813C30.5096 11.9377 30.3519 12 30.1613 12C29.9706 12 29.8129 11.9377 29.6883 11.813C29.5636 11.681 29.5013 11.5197 29.5013 11.329V6.786C29.5013 6.59533 29.5636 6.43767 29.6883 6.313C29.8129 6.181 29.9706 6.115 30.1613 6.115C30.3519 6.115 30.5096 6.181 30.6343 6.313C30.7589 6.43767 30.8213 6.59533 30.8213 6.786V11.329ZM30.1503 5.4C29.9009 5.4 29.7249 5.35967 29.6223 5.279C29.5196 5.19833 29.4683 5.05533 29.4683 4.85V4.641C29.4683 4.42833 29.5233 4.28533 29.6333 4.212C29.7506 4.13133 29.9266 4.091 30.1613 4.091C30.4179 4.091 30.5976 4.13133 30.7003 4.212C30.8029 4.29267 30.8543 4.43567 30.8543 4.641V4.85C30.8543 5.06267 30.7993 5.20933 30.6893 5.29C30.5793 5.36333 30.3996 5.4 30.1503 5.4ZM36.9959 6.005C37.1866 6.005 37.3442 6.06733 37.4689 6.192C37.5936 6.31667 37.6559 6.478 37.6559 6.676V11.329C37.6559 11.5197 37.5936 11.681 37.4689 11.813C37.3442 11.9377 37.1866 12 36.9959 12C36.8052 12 36.6476 11.9377 36.5229 11.813C36.3982 11.681 36.3359 11.5197 36.3359 11.329V10.79L36.5779 10.889C36.5779 10.9843 36.5266 11.1017 36.4239 11.241C36.3212 11.373 36.1819 11.505 36.0059 11.637C35.8299 11.769 35.6209 11.8827 35.3789 11.978C35.1442 12.066 34.8876 12.11 34.6089 12.11C34.1029 12.11 33.6446 11.9817 33.2339 11.725C32.8232 11.461 32.4969 11.1017 32.2549 10.647C32.0202 10.185 31.9029 9.657 31.9029 9.063C31.9029 8.46167 32.0202 7.93367 32.2549 7.479C32.4969 7.017 32.8196 6.65767 33.2229 6.401C33.6262 6.137 34.0736 6.005 34.5649 6.005C34.8802 6.005 35.1699 6.05267 35.4339 6.148C35.6979 6.24333 35.9252 6.36433 36.1159 6.511C36.3139 6.65767 36.4642 6.808 36.5669 6.962C36.6769 7.10867 36.7319 7.23333 36.7319 7.336L36.3359 7.479V6.676C36.3359 6.48533 36.3982 6.32767 36.5229 6.203C36.6476 6.071 36.8052 6.005 36.9959 6.005ZM34.7739 10.9C35.0966 10.9 35.3789 10.8193 35.6209 10.658C35.8629 10.4967 36.0499 10.2767 36.1819 9.998C36.3212 9.71933 36.3909 9.40767 36.3909 9.063C36.3909 8.711 36.3212 8.39567 36.1819 8.117C36.0499 7.83833 35.8629 7.61833 35.6209 7.457C35.3789 7.29567 35.0966 7.215 34.7739 7.215C34.4586 7.215 34.1799 7.29567 33.9379 7.457C33.6959 7.61833 33.5052 7.83833 33.3659 8.117C33.2339 8.39567 33.1679 8.711 33.1679 9.063C33.1679 9.40767 33.2339 9.71933 33.3659 9.998C33.5052 10.2767 33.6959 10.4967 33.9379 10.658C34.1799 10.8193 34.4586 10.9 34.7739 10.9ZM41.5271 6.005C41.8351 6.005 42.1175 6.05267 42.3741 6.148C42.6308 6.24333 42.8508 6.36433 43.0341 6.511C43.2248 6.65767 43.3715 6.808 43.4741 6.962C43.5841 7.10867 43.6391 7.23333 43.6391 7.336L43.3531 7.479V6.676C43.3531 6.48533 43.4155 6.32767 43.5401 6.203C43.6648 6.071 43.8225 6.005 44.0131 6.005C44.2038 6.005 44.3615 6.06733 44.4861 6.192C44.6108 6.31667 44.6731 6.478 44.6731 6.676V11.571C44.6731 12.209 44.5338 12.7187 44.2551 13.1C43.9838 13.4887 43.6245 13.7673 43.1771 13.936C42.7298 14.112 42.2495 14.2 41.7361 14.2C41.5895 14.2 41.3988 14.1817 41.1641 14.145C40.9295 14.1083 40.7058 14.0643 40.4931 14.013C40.2805 13.9617 40.1191 13.914 40.0091 13.87C39.7891 13.7747 39.6351 13.6537 39.5471 13.507C39.4665 13.3677 39.4518 13.2173 39.5031 13.056C39.5691 12.8433 39.6755 12.6967 39.8221 12.616C39.9688 12.5427 40.1228 12.5353 40.2841 12.594C40.3575 12.616 40.4785 12.66 40.6471 12.726C40.8158 12.792 40.9991 12.8507 41.1971 12.902C41.4025 12.9607 41.5821 12.99 41.7361 12.99C42.2861 12.99 42.6931 12.88 42.9571 12.66C43.2211 12.44 43.3531 12.1357 43.3531 11.747V10.79L43.4851 10.889C43.4851 10.9843 43.4338 11.1017 43.3311 11.241C43.2358 11.373 43.1001 11.505 42.9241 11.637C42.7555 11.769 42.5538 11.8827 42.3191 11.978C42.0845 12.066 41.8351 12.11 41.5711 12.11C41.0505 12.11 40.5811 11.9817 40.1631 11.725C39.7451 11.461 39.4151 11.1017 39.1731 10.647C38.9311 10.185 38.8101 9.657 38.8101 9.063C38.8101 8.46167 38.9311 7.93367 39.1731 7.479C39.4151 7.017 39.7415 6.65767 40.1521 6.401C40.5628 6.137 41.0211 6.005 41.5271 6.005ZM41.7361 7.215C41.4061 7.215 41.1165 7.29567 40.8671 7.457C40.6178 7.61833 40.4235 7.83833 40.2841 8.117C40.1448 8.39567 40.0751 8.711 40.0751 9.063C40.0751 9.40767 40.1448 9.71933 40.2841 9.998C40.4235 10.2767 40.6178 10.4967 40.8671 10.658C41.1165 10.8193 41.4061 10.9 41.7361 10.9C42.0735 10.9 42.3668 10.8193 42.6161 10.658C42.8655 10.4967 43.0598 10.2767 43.1991 9.998C43.3385 9.71933 43.4081 9.40767 43.4081 9.063C43.4081 8.711 43.3385 8.39567 43.1991 8.117C43.0598 7.83833 42.8655 7.61833 42.6161 7.457C42.3668 7.29567 42.0735 7.215 41.7361 7.215ZM46.7598 12C46.5691 12 46.4114 11.9377 46.2868 11.813C46.1621 11.681 46.0998 11.5197 46.0998 11.329V6.786C46.0998 6.59533 46.1621 6.43767 46.2868 6.313C46.4114 6.181 46.5691 6.115 46.7598 6.115C46.9504 6.115 47.1081 6.181 47.2328 6.313C47.3574 6.43767 47.4198 6.59533 47.4198 6.786V7.82L47.3428 7.083C47.4234 6.907 47.5261 6.753 47.6508 6.621C47.7828 6.48167 47.9294 6.368 48.0908 6.28C48.2521 6.18467 48.4244 6.115 48.6078 6.071C48.7911 6.027 48.9744 6.005 49.1578 6.005C49.3778 6.005 49.5611 6.06733 49.7078 6.192C49.8618 6.31667 49.9388 6.46333 49.9388 6.632C49.9388 6.874 49.8764 7.05 49.7518 7.16C49.6271 7.26267 49.4914 7.314 49.3448 7.314C49.2054 7.314 49.0771 7.28833 48.9598 7.237C48.8498 7.18567 48.7214 7.16 48.5748 7.16C48.4428 7.16 48.3071 7.193 48.1678 7.259C48.0358 7.31767 47.9111 7.413 47.7938 7.545C47.6838 7.677 47.5921 7.842 47.5188 8.04C47.4528 8.23067 47.4198 8.458 47.4198 8.722V11.329C47.4198 11.5197 47.3574 11.681 47.2328 11.813C47.1081 11.9377 46.9504 12 46.7598 12ZM55.5584 6.005C55.7491 6.005 55.9067 6.06733 56.0314 6.192C56.1561 6.31667 56.2184 6.478 56.2184 6.676V11.329C56.2184 11.5197 56.1561 11.681 56.0314 11.813C55.9067 11.9377 55.7491 12 55.5584 12C55.3677 12 55.2101 11.9377 55.0854 11.813C54.9607 11.681 54.8984 11.5197 54.8984 11.329V10.79L55.1404 10.889C55.1404 10.9843 55.0891 11.1017 54.9864 11.241C54.8837 11.373 54.7444 11.505 54.5684 11.637C54.3924 11.769 54.1834 11.8827 53.9414 11.978C53.7067 12.066 53.4501 12.11 53.1714 12.11C52.6654 12.11 52.2071 11.9817 51.7964 11.725C51.3857 11.461 51.0594 11.1017 50.8174 10.647C50.5827 10.185 50.4654 9.657 50.4654 9.063C50.4654 8.46167 50.5827 7.93367 50.8174 7.479C51.0594 7.017 51.3821 6.65767 51.7854 6.401C52.1887 6.137 52.6361 6.005 53.1274 6.005C53.4427 6.005 53.7324 6.05267 53.9964 6.148C54.2604 6.24333 54.4877 6.36433 54.6784 6.511C54.8764 6.65767 55.0267 6.808 55.1294 6.962C55.2394 7.10867 55.2944 7.23333 55.2944 7.336L54.8984 7.479V6.676C54.8984 6.48533 54.9607 6.32767 55.0854 6.203C55.2101 6.071 55.3677 6.005 55.5584 6.005ZM53.3364 10.9C53.6591 10.9 53.9414 10.8193 54.1834 10.658C54.4254 10.4967 54.6124 10.2767 54.7444 9.998C54.8837 9.71933 54.9534 9.40767 54.9534 9.063C54.9534 8.711 54.8837 8.39567 54.7444 8.117C54.6124 7.83833 54.4254 7.61833 54.1834 7.457C53.9414 7.29567 53.6591 7.215 53.3364 7.215C53.0211 7.215 52.7424 7.29567 52.5004 7.457C52.2584 7.61833 52.0677 7.83833 51.9284 8.117C51.7964 8.39567 51.7304 8.711 51.7304 9.063C51.7304 9.40767 51.7964 9.71933 51.9284 9.998C52.0677 10.2767 52.2584 10.4967 52.5004 10.658C52.7424 10.8193 53.0211 10.9 53.3364 10.9Z" fill="black"/>
<path d="M60.2326 12.11C59.7193 12.11 59.2573 12.0477 58.8466 11.923C58.436 11.791 58.0436 11.5637 57.6696 11.241C57.5743 11.1603 57.501 11.0687 57.4496 10.966C57.3983 10.8633 57.3726 10.7607 57.3726 10.658C57.3726 10.4893 57.4313 10.3427 57.5486 10.218C57.6733 10.086 57.8273 10.02 58.0106 10.02C58.15 10.02 58.2746 10.064 58.3846 10.152C58.6633 10.3793 58.9383 10.5517 59.2096 10.669C59.4883 10.7863 59.8293 10.845 60.2326 10.845C60.504 10.845 60.7533 10.8047 60.9806 10.724C61.208 10.636 61.3913 10.5223 61.5306 10.383C61.67 10.2363 61.7396 10.0713 61.7396 9.888C61.7396 9.668 61.6736 9.481 61.5416 9.327C61.4096 9.173 61.208 9.04467 60.9366 8.942C60.6653 8.832 60.3206 8.74767 59.9026 8.689C59.5066 8.63033 59.1583 8.54233 58.8576 8.425C58.557 8.30033 58.304 8.14633 58.0986 7.963C57.9006 7.77233 57.7503 7.55233 57.6476 7.303C57.545 7.04633 57.4936 6.76033 57.4936 6.445C57.4936 5.96833 57.6146 5.56133 57.8566 5.224C58.106 4.88667 58.4396 4.63 58.8576 4.454C59.2756 4.278 59.7376 4.19 60.2436 4.19C60.7203 4.19 61.1603 4.26333 61.5636 4.41C61.9743 4.54933 62.308 4.729 62.5646 4.949C62.7773 5.11767 62.8836 5.312 62.8836 5.532C62.8836 5.69333 62.8213 5.84 62.6966 5.972C62.572 6.104 62.4253 6.17 62.2566 6.17C62.1466 6.17 62.0476 6.137 61.9596 6.071C61.8423 5.96833 61.6846 5.873 61.4866 5.785C61.2886 5.68967 61.0796 5.61267 60.8596 5.554C60.6396 5.488 60.4343 5.455 60.2436 5.455C59.9283 5.455 59.6606 5.49533 59.4406 5.576C59.228 5.65667 59.0666 5.76667 58.9566 5.906C58.8466 6.04533 58.7916 6.20667 58.7916 6.39C58.7916 6.61 58.854 6.79333 58.9786 6.94C59.1106 7.07933 59.2976 7.193 59.5396 7.281C59.7816 7.36167 60.0713 7.435 60.4086 7.501C60.8486 7.58167 61.2336 7.677 61.5636 7.787C61.901 7.897 62.1796 8.04 62.3996 8.216C62.6196 8.38467 62.7846 8.601 62.8946 8.865C63.0046 9.12167 63.0596 9.437 63.0596 9.811C63.0596 10.2877 62.9276 10.6983 62.6636 11.043C62.3996 11.3877 62.0513 11.6517 61.6186 11.835C61.1933 12.0183 60.7313 12.11 60.2326 12.11ZM67.2581 6.005C67.7714 6.005 68.2298 6.137 68.6331 6.401C69.0438 6.65767 69.3664 7.01333 69.6011 7.468C69.8431 7.92267 69.9641 8.45067 69.9641 9.052C69.9641 9.65333 69.8431 10.185 69.6011 10.647C69.3664 11.1017 69.0474 11.461 68.6441 11.725C68.2481 11.9817 67.8008 12.11 67.3021 12.11C67.0088 12.11 66.7338 12.0623 66.4771 11.967C66.2204 11.8717 65.9931 11.7507 65.7951 11.604C65.6044 11.4573 65.4541 11.3107 65.3441 11.164C65.2414 11.01 65.1901 10.8817 65.1901 10.779L65.5311 10.636V13.529C65.5311 13.7197 65.4688 13.8773 65.3441 14.002C65.2194 14.134 65.0618 14.2 64.8711 14.2C64.6804 14.2 64.5228 14.1377 64.3981 14.013C64.2734 13.8883 64.2111 13.727 64.2111 13.529V6.786C64.2111 6.59533 64.2734 6.43767 64.3981 6.313C64.5228 6.181 64.6804 6.115 64.8711 6.115C65.0618 6.115 65.2194 6.181 65.3441 6.313C65.4688 6.43767 65.5311 6.59533 65.5311 6.786V7.325L65.3441 7.226C65.3441 7.13067 65.3954 7.017 65.4981 6.885C65.6008 6.74567 65.7401 6.61 65.9161 6.478C66.0921 6.33867 66.2938 6.225 66.5211 6.137C66.7558 6.049 67.0014 6.005 67.2581 6.005ZM67.0931 7.215C66.7704 7.215 66.4881 7.29567 66.2461 7.457C66.0041 7.61833 65.8134 7.83833 65.6741 8.117C65.5421 8.38833 65.4761 8.7 65.4761 9.052C65.4761 9.39667 65.5421 9.712 65.6741 9.998C65.8134 10.2767 66.0041 10.4967 66.2461 10.658C66.4881 10.8193 66.7704 10.9 67.0931 10.9C67.4158 10.9 67.6944 10.8193 67.9291 10.658C68.1711 10.4967 68.3581 10.2767 68.4901 9.998C68.6294 9.712 68.6991 9.39667 68.6991 9.052C68.6991 8.7 68.6294 8.38833 68.4901 8.117C68.3581 7.83833 68.1711 7.61833 67.9291 7.457C67.6944 7.29567 67.4158 7.215 67.0931 7.215ZM71.7783 12C71.5877 12 71.43 11.9377 71.3053 11.813C71.1807 11.681 71.1183 11.5197 71.1183 11.329V6.786C71.1183 6.59533 71.1807 6.43767 71.3053 6.313C71.43 6.181 71.5877 6.115 71.7783 6.115C71.969 6.115 72.1267 6.181 72.2513 6.313C72.376 6.43767 72.4383 6.59533 72.4383 6.786V7.82L72.3613 7.083C72.442 6.907 72.5447 6.753 72.6693 6.621C72.8013 6.48167 72.948 6.368 73.1093 6.28C73.2707 6.18467 73.443 6.115 73.6263 6.071C73.8097 6.027 73.993 6.005 74.1763 6.005C74.3963 6.005 74.5797 6.06733 74.7263 6.192C74.8803 6.31667 74.9573 6.46333 74.9573 6.632C74.9573 6.874 74.895 7.05 74.7703 7.16C74.6457 7.26267 74.51 7.314 74.3633 7.314C74.224 7.314 74.0957 7.28833 73.9783 7.237C73.8683 7.18567 73.74 7.16 73.5933 7.16C73.4613 7.16 73.3257 7.193 73.1863 7.259C73.0543 7.31767 72.9297 7.413 72.8123 7.545C72.7023 7.677 72.6107 7.842 72.5373 8.04C72.4713 8.23067 72.4383 8.458 72.4383 8.722V11.329C72.4383 11.5197 72.376 11.681 72.2513 11.813C72.1267 11.9377 71.969 12 71.7783 12ZM77.1309 11.329C77.1309 11.5197 77.0685 11.681 76.9439 11.813C76.8192 11.9377 76.6615 12 76.4709 12C76.2802 12 76.1225 11.9377 75.9979 11.813C75.8732 11.681 75.8109 11.5197 75.8109 11.329V6.786C75.8109 6.59533 75.8732 6.43767 75.9979 6.313C76.1225 6.181 76.2802 6.115 76.4709 6.115C76.6615 6.115 76.8192 6.181 76.9439 6.313C77.0685 6.43767 77.1309 6.59533 77.1309 6.786V11.329ZM76.4599 5.4C76.2105 5.4 76.0345 5.35967 75.9319 5.279C75.8292 5.19833 75.7779 5.05533 75.7779 4.85V4.641C75.7779 4.42833 75.8329 4.28533 75.9429 4.212C76.0602 4.13133 76.2362 4.091 76.4709 4.091C76.7275 4.091 76.9072 4.13133 77.0099 4.212C77.1125 4.29267 77.1639 4.43567 77.1639 4.641V4.85C77.1639 5.06267 77.1089 5.20933 76.9989 5.29C76.8889 5.36333 76.7092 5.4 76.4599 5.4ZM81.6335 6.005C82.1761 6.005 82.5868 6.11867 82.8655 6.346C83.1515 6.57333 83.3458 6.87767 83.4485 7.259C83.5585 7.633 83.6135 8.051 83.6135 8.513V11.329C83.6135 11.5197 83.5511 11.681 83.4265 11.813C83.3018 11.9377 83.1441 12 82.9535 12C82.7628 12 82.6051 11.9377 82.4805 11.813C82.3558 11.681 82.2935 11.5197 82.2935 11.329V8.513C82.2935 8.271 82.2605 8.05467 82.1945 7.864C82.1358 7.666 82.0258 7.50833 81.8645 7.391C81.7031 7.27367 81.4721 7.215 81.1715 7.215C80.8781 7.215 80.6288 7.27367 80.4235 7.391C80.2255 7.50833 80.0715 7.666 79.9615 7.864C79.8588 8.05467 79.8075 8.271 79.8075 8.513V11.329C79.8075 11.5197 79.7451 11.681 79.6205 11.813C79.4958 11.9377 79.3381 12 79.1475 12C78.9568 12 78.7991 11.9377 78.6745 11.813C78.5498 11.681 78.4875 11.5197 78.4875 11.329V6.786C78.4875 6.59533 78.5498 6.43767 78.6745 6.313C78.7991 6.181 78.9568 6.115 79.1475 6.115C79.3381 6.115 79.4958 6.181 79.6205 6.313C79.7451 6.43767 79.8075 6.59533 79.8075 6.786V7.259L79.6425 7.226C79.7085 7.10133 79.8038 6.96933 79.9285 6.83C80.0531 6.68333 80.1998 6.54767 80.3685 6.423C80.5371 6.29833 80.7278 6.19933 80.9405 6.126C81.1531 6.04533 81.3841 6.005 81.6335 6.005ZM87.4822 6.005C87.7902 6.005 88.0725 6.05267 88.3292 6.148C88.5859 6.24333 88.8059 6.36433 88.9892 6.511C89.1799 6.65767 89.3265 6.808 89.4292 6.962C89.5392 7.10867 89.5942 7.23333 89.5942 7.336L89.3082 7.479V6.676C89.3082 6.48533 89.3705 6.32767 89.4952 6.203C89.6199 6.071 89.7775 6.005 89.9682 6.005C90.1589 6.005 90.3165 6.06733 90.4412 6.192C90.5659 6.31667 90.6282 6.478 90.6282 6.676V11.571C90.6282 12.209 90.4889 12.7187 90.2102 13.1C89.9389 13.4887 89.5795 13.7673 89.1322 13.936C88.6849 14.112 88.2045 14.2 87.6912 14.2C87.5445 14.2 87.3539 14.1817 87.1192 14.145C86.8845 14.1083 86.6609 14.0643 86.4482 14.013C86.2355 13.9617 86.0742 13.914 85.9642 13.87C85.7442 13.7747 85.5902 13.6537 85.5022 13.507C85.4215 13.3677 85.4069 13.2173 85.4582 13.056C85.5242 12.8433 85.6305 12.6967 85.7772 12.616C85.9239 12.5427 86.0779 12.5353 86.2392 12.594C86.3125 12.616 86.4335 12.66 86.6022 12.726C86.7709 12.792 86.9542 12.8507 87.1522 12.902C87.3575 12.9607 87.5372 12.99 87.6912 12.99C88.2412 12.99 88.6482 12.88 88.9122 12.66C89.1762 12.44 89.3082 12.1357 89.3082 11.747V10.79L89.4402 10.889C89.4402 10.9843 89.3889 11.1017 89.2862 11.241C89.1909 11.373 89.0552 11.505 88.8792 11.637C88.7105 11.769 88.5089 11.8827 88.2742 11.978C88.0395 12.066 87.7902 12.11 87.5262 12.11C87.0055 12.11 86.5362 11.9817 86.1182 11.725C85.7002 11.461 85.3702 11.1017 85.1282 10.647C84.8862 10.185 84.7652 9.657 84.7652 9.063C84.7652 8.46167 84.8862 7.93367 85.1282 7.479C85.3702 7.017 85.6965 6.65767 86.1072 6.401C86.5179 6.137 86.9762 6.005 87.4822 6.005ZM87.6912 7.215C87.3612 7.215 87.0715 7.29567 86.8222 7.457C86.5729 7.61833 86.3785 7.83833 86.2392 8.117C86.0999 8.39567 86.0302 8.711 86.0302 9.063C86.0302 9.40767 86.0999 9.71933 86.2392 9.998C86.3785 10.2767 86.5729 10.4967 86.8222 10.658C87.0715 10.8193 87.3612 10.9 87.6912 10.9C88.0285 10.9 88.3219 10.8193 88.5712 10.658C88.8205 10.4967 89.0149 10.2767 89.1542 9.998C89.2935 9.71933 89.3632 9.40767 89.3632 9.063C89.3632 8.711 89.2935 8.39567 89.1542 8.117C89.0149 7.83833 88.8205 7.61833 88.5712 7.457C88.3219 7.29567 88.0285 7.215 87.6912 7.215Z" fill="#ACD9B2"/>
</svg>
